<svg width="5000" height="2000" viewBox="0 0 5000 2000" fill="none" xmlns="http://www.w3.org/2000/svg">
<path d="M3686.2 1698.2C3686.2 1698.2 4138.8 1752.8 4282.9 1546.1C4469.8 1277.9 4085.8 1074.5 3791.3 1112.4C3149.4 1195 3157.5 -24.5001 2287.7 669.1C2057.6 852.6 1747.4 523.5 1371.9 929.7C1284.1 1024.6 747.8 841.2 480.9 916.3C-41.5 1063.3 197.4 1700.7 570.6 1703.2C943.9 1705.7 3686.2 1698.2 3686.2 1698.2Z" fill="#EBF2F9"/>
<path d="M3682.9 475H3174.6V1701.9H3682.9V475Z" fill="#A6C7F9"/>
<path d="M3264.7 475H3174.1V1701.9H3264.7V475Z" fill="#699DEE"/>
<path d="M3795.2 475H3286.9V1701.9H3795.2V475Z" fill="#D2E4FF"/>
<path d="M3778.4 475H3684.1V1701.9H3778.4V475Z" fill="#A6C7F9"/>
<path d="M2787.7 1689.1C2786.9 1699.5 2772.2 1699.5 2755.5 1697.5C2738.8 1695.4 2688.6 1692.2 2687.5 1688.9C2686.5 1685.9 2697.8 1683.5 2709.8 1680.7C2711.3 1680.3 2712.8 1680 2714.4 1679.6C2728 1676.3 2739.7 1668.9 2748.7 1657.4C2758.8 1644.4 2768.1 1585.4 2768.1 1585.4L2804.6 1592.2C2804.6 1592.2 2783.4 1642.8 2781.2 1659.4C2780.2 1666.9 2785.5 1671.8 2786.8 1678.3C2787.3 1681.8 2788 1685.5 2787.7 1689.1Z" fill="#B77446"/>
<path d="M2787.7 1689.1C2786.9 1699.5 2772.2 1699.5 2755.5 1697.5C2744.1 1696.1 2742.6 1697.6 2735.2 1698.8H2706C2693.3 1696.6 2688.4 1691.4 2687.5 1688.9C2686.5 1685.9 2697.8 1683.5 2709.8 1680.7L2709.9 1680.9C2709.9 1680.9 2724.9 1689.1 2744.1 1687.3C2759.8 1685.8 2775.8 1679.4 2786.6 1678.3C2787.3 1681.8 2788 1685.5 2787.7 1689.1Z" fill="#365DA4"/>
<path d="M2755.1 1627.8C2755.1 1627.8 2764.7 1634.1 2773.6 1635.8C2787.1 1638.3 2793.3 1635.5 2793.3 1635.5C2793.3 1635.5 2858.1 1472.8 2854.4 1417.8C2854.3 1416.5 2854.3 1415.1 2854.2 1413.6C2854.1 1404.1 2855.5 1391.3 2857.8 1376.7C2858.7 1371.3 2859.7 1365.7 2860.8 1359.9C2863.4 1346.3 2866.6 1331.7 2870.1 1316.8C2871.7 1310.2 2873.3 1303.6 2874.9 1297C2891.2 1231.9 2911.1 1167.8 2911.1 1167.8C2911.1 1167.8 2794.2 1129.6 2787.5 1165.3C2785 1179 2776.5 1233.8 2780.3 1317.7C2783.4 1385.2 2781.4 1437.8 2775.6 1498.9C2770.7 1552.6 2761.9 1598.7 2755.1 1627.8Z" fill="#365DA4"/>
<path d="M2854.3 1413.6C2854.2 1404.1 2855.6 1391.3 2857.9 1376.7C2858.8 1371.3 2859.8 1365.7 2860.9 1359.9C2863.5 1346.3 2866.7 1331.7 2870.2 1316.8C2871.8 1310.2 2873.4 1303.6 2875 1297C2872.7 1277.1 2870.8 1263.5 2870.8 1263.5C2870.8 1263.5 2822.4 1329.5 2854.3 1413.6Z" fill="#285493"/>
<path d="M2935.2 1689.1C2934.4 1699.5 2919.7 1699.5 2903 1697.5C2886.3 1695.4 2836.1 1692.2 2835 1688.9C2834 1685.9 2845.3 1683.5 2857.3 1680.7C2858.8 1680.3 2860.3 1680 2861.9 1679.6C2875.5 1676.3 2884.5 1666.2 2896.2 1657.4C2907.3 1649.1 2899.5 1608.8 2899.5 1608.8L2933.8 1596.6C2933.8 1596.6 2928.6 1637.2 2928.6 1659.5C2928.6 1667 2932.9 1671.9 2934.2 1678.4C2934.9 1681.8 2935.5 1685.5 2935.2 1689.1Z" fill="#B77446"/>
<path d="M2935.2 1689.1C2934.4 1699.5 2919.7 1699.5 2903 1697.5C2891.6 1696.1 2890.1 1697.6 2882.7 1698.8H2853.4C2840.7 1696.6 2835.8 1691.4 2834.9 1688.9C2833.9 1685.9 2845.2 1683.5 2857.2 1680.7L2857.3 1680.9C2857.3 1680.9 2872.3 1689.1 2891.5 1687.3C2907.2 1685.8 2923.2 1679.4 2934 1678.3C2934.9 1681.8 2935.5 1685.5 2935.2 1689.1Z" fill="#365DA4"/>
<path d="M2840.9 1155.1C2840.9 1155.1 2878.9 1344.7 2885.4 1447.9C2891.9 1551.1 2899.9 1636.5 2899.9 1636.5C2899.9 1636.5 2908.2 1639.5 2917.7 1638.9C2927.8 1638.3 2935.7 1635.2 2935.7 1635.2C2935.7 1635.2 2973.4 1479.9 2960.9 1417.8C2948.4 1355.6 2958.8 1298.3 2964.8 1246.8C2973.4 1172.9 2940.3 1138.5 2917.2 1115.1C2893.8 1091.5 2840.9 1155.1 2840.9 1155.1Z" fill="#365DA4"/>
<path d="M2813.9 807.8C2810.1 776.9 2819.8 727.5 2881.4 735.4C2943 743.3 2962.4 803.8 2950 830.8C2937.6 857.7 2967.9 864.2 2977.4 893.2C2985.6 918.1 2988.4 949 3001.7 962.8C3044.4 1007.5 2960.7 1076.2 2910.3 1061.7C2818.5 1035.3 2806.7 1031.4 2809.9 959.2C2811.6 922.2 2840.3 907.9 2822.1 897.2C2778 871.5 2822.4 877.7 2813.9 807.8Z" fill="#AA443E"/>
<path d="M2832.5 907L2850.7 934.3L2887.4 932.5L2904.4 888.7C2904.4 888.7 2899.2 887.7 2896.7 833L2850.9 847C2850.9 847 2853.3 861.3 2850.1 876.8C2847.9 887.6 2842.9 899.1 2832.5 907Z" fill="#D9935C"/>
<path d="M2827.4 887.7C2829.8 887.7 2872.9 873.3 2934.6 898.4C2934.6 898.4 2905.3 1065.9 2917.9 1097.8C2930.5 1129.8 2935.3 1158.1 2935.3 1158.1L2798.9 1159.8C2798.9 1159.8 2800.8 1050.1 2794.5 1011.3C2788.2 972.4 2827.4 887.7 2827.4 887.7Z" fill="#D9935C"/>
<path d="M2934.5 1084.7C2933.7 1081.5 2933.1 1078.6 2932.9 1076.2C2931.1 1056 2934.2 1039.5 2939.2 1023.3C2939.3 1023 2939.4 1022.8 2939.4 1022.5C2939.5 1022.1 2939.7 1021.4 2939.9 1020.6C2939.9 1020.6 2939.9 1020.6 2939.9 1020.5C2940.1 1019.7 2940.3 1018.8 2940.6 1017.8C2940.7 1017.5 2940.8 1017.1 2940.8 1016.7C2944.3 1001 2952 961.5 2954 956.1C2954.7 954.3 2955.4 951.2 2956.1 947.5C2958.2 935.6 2959.1 916.7 2952.1 908.8C2942.4 897.8 2909.3 889.9 2909.3 889.9C2902.6 900.5 2879.8 926.3 2851.1 921.6C2834.5 918.9 2832 886.7 2832 886.7C2814.2 889.1 2809.7 891.9 2809.7 891.9C2809.7 891.9 2767.1 918.5 2706.8 1003.2C2704.9 1005.9 2700.3 1005.6 2689.2 1003.4C2675 1000.6 2646.1 1001 2602.5 994.6C2602.5 994.6 2601 995.7 2600.6 1000.5C2599.7 1011 2598.6 1014.1 2598.6 1014.1C2598.6 1014.1 2627.3 1027.6 2657.9 1037.3C2668.7 1040.7 2680 1043.9 2690.8 1046.3C2700.8 1048.5 2710.4 1050.1 2718.8 1050.5C2718.8 1050.5 2753.6 1037.1 2787.3 1000C2789.3 1031.2 2793.6 1071.5 2790.9 1100.9C2789.4 1117.6 2777.9 1174 2780.8 1183.4C2786.8 1202.9 2832.8 1203.9 2873.9 1201.9C2874.8 1201.9 2875.7 1201.8 2876.6 1201.8C2883 1201.4 2889.2 1200.9 2895.1 1200.2C2906.1 1199 2915.7 1197.4 2921.9 1195.9C2929.9 1194.1 2940 1191.4 2948.2 1187.5C2954.5 1184.5 2959.6 1180.7 2961.9 1175.9C2958.2 1154.5 2939.1 1108.2 2934.5 1084.7Z" fill="#80BDCC"/>
<path d="M2845 1138.8C2852.8 1165.2 2857.3 1186.9 2876.9 1201.6C2883.3 1201.2 2889.5 1200.7 2895.4 1200C2906.4 1198.8 2916 1197.2 2922.2 1195.7C2930.2 1193.9 2940.3 1191.2 2948.5 1187.3C2954.8 1184.3 2959.9 1180.5 2962.2 1175.7C2958.2 1154.4 2939.2 1108.1 2934.6 1084.7C2934.2 1082.4 2933.8 1080.3 2933.7 1078.5C2932 1057.5 2934.7 1040.2 2939.4 1023.3C2939.7 1022.4 2939.9 1021.5 2940.2 1020.6C2940.2 1020.6 2940.2 1020.6 2940.2 1020.5C2940.4 1019.9 2940.6 1019 2940.9 1017.8C2941 1017.5 2941.1 1017.1 2941.1 1016.7C2944.2 1001.8 2952.4 955.1 2954.5 949C2955.2 947.1 2955.9 943.8 2956.5 939.7L2940.1 923.9C2940.1 923.9 2845.9 964.1 2825.1 1019.6C2804.3 1075.1 2833.8 1100.9 2845 1138.8Z" fill="#5F9AA8"/>
<path d="M2658.2 1037.2C2679.1 1043.8 2701.7 1049.6 2719 1050.4C2719 1050.4 2754.3 1036.9 2788.2 999.1C2789.6 992.7 2791 981.9 2783.2 985C2772.3 989.4 2732 1041.1 2716.8 1042.2C2706 1043.1 2674.9 1039.4 2658.2 1037.2Z" fill="#5F9AA8"/>
<path d="M2732.6 1022.5C2732.6 1022.5 2779 1045.8 2819.3 1055.5C2830.9 1058.3 2842.1 1060.2 2851.6 1060.7C2851.6 1060.7 2895.8 1048 2928 1001.1C2987.4 914.3 2942.6 902 2942.6 902C2942.6 902 2900 928.6 2839.7 1013.3C2837.6 1016.3 2832.3 1015.6 2818.6 1012.8C2804 1009.8 2774.8 1010.2 2734.6 1004.3C2734.6 1004.3 2733.9 1005.8 2733.5 1010.6C2732.6 1021.1 2732.6 1022.5 2732.6 1022.5Z" fill="#80BDCC"/>
<path d="M2689.5 1003.3C2675.5 1000.6 2645.7 1000.4 2602.8 994.1C2599.5 993 2595.7 991.6 2592.2 989.9C2583 985.3 2558.5 982.2 2553.3 987.1C2548.1 992 2558.8 1011.9 2581.2 1012.5C2589 1012.7 2594.9 1013.3 2599.2 1014C2601.6 1015.1 2629.1 1027.9 2658.3 1037.1C2669.1 1040.5 2680.4 1043.7 2691.2 1046.1C2695.4 1027 2692.4 1012 2689.5 1003.3Z" fill="#A86337"/>
<path d="M2850.1 876.7C2869 875.2 2896.7 832.9 2896.7 832.9L2850.9 846.9C2851 847 2853.4 861.2 2850.1 876.7Z" fill="#CC7C46"/>
<path d="M2838.9 850.1C2838.9 850.1 2893.8 861.1 2900.1 826.8C2906.4 792.5 2917.8 770.8 2883 762.4C2848.2 753.9 2839 765.7 2834.1 776.7C2829.3 787.6 2824.8 846.3 2838.9 850.1Z" fill="#D9935C"/>
<path d="M2865.8 753.8C2865.8 753.8 2864.8 765.4 2882.9 785.2C2901 804.9 2896.6 840.1 2896.6 840.1C2896.6 840.1 2927 782.9 2910.8 764.7C2894.6 746.4 2865.8 753.8 2865.8 753.8Z" fill="#AA443E"/>
<path d="M2887.8 738.7C2887.8 738.7 2860.5 729.6 2833.4 756.3C2821.7 767.8 2823.5 790.4 2829.7 803.5C2829.7 803.5 2839.3 775.4 2856.8 769.3C2874.3 763.1 2887.8 738.7 2887.8 738.7Z" fill="#AA443E"/>
<path d="M2856 833.2C2856 833.2 2854.5 837.3 2844.2 835.4C2844.2 835.4 2835.5 833.9 2836.3 829.3C2836.4 829.3 2845.2 827 2856 833.2Z" fill="white"/>
<path d="M2671.6 925.3L2554.7 928L2581.5 1090.3L2699.8 1094.2L2671.6 925.3Z" fill="#A6C7F9"/>
<path d="M2819.3 1055.5C2810.5 1038 2813.9 1022.7 2818.5 1012.9C2803.9 1009.9 2774.5 1008.7 2734.3 1002.8C2734.3 1002.8 2734.3 1002.8 2734.3 1002.9C2730 1001.8 2723.6 999.8 2717.8 996.9C2708 992 2681.8 988.7 2676.3 994C2670.7 999.2 2682.2 1020.5 2706.1 1021.1C2719.3 1021.5 2727.3 1022.8 2731.8 1024C2735.8 1025.7 2780.9 1046.2 2819.3 1055.5Z" fill="#B77446"/>
<path d="M2025.6 1121.4H1745.5V1401.5H2025.6V1121.4Z" fill="#4A75CB"/>
<path d="M2112 1121.4H1831.9V1401.5H2112V1121.4Z" fill="#699DEE"/>
<path d="M2284.9 1401.5H1984.2V1702.2H2284.9V1401.5Z" fill="#D86713"/>
<path d="M2377.6 1401.5H2076.9V1702.2H2377.6V1401.5Z" fill="#F1A34F"/>
<path d="M2076.9 1401.5L1984.2 1457.7V1401.5H2076.9Z" fill="#C95C12"/>
<path d="M4489.4 1690.6C4488.5 1701.1 4389 1693.7 4387.9 1690.3C4386.9 1687.3 4398.3 1684.9 4410.5 1682C4412 1681.6 4413.6 1681.3 4415.1 1680.9C4428.9 1677.5 4440.8 1670.1 4449.8 1658.4C4460.1 1645.3 4469.4 1585.4 4469.4 1585.4L4506.3 1592.3C4506.3 1592.3 4484.8 1643.6 4482.6 1660.4C4481.6 1667.9 4487 1673 4488.2 1679.6C4489 1683.2 4489.7 1686.9 4489.4 1690.6Z" fill="#B77446"/>
<path d="M4489.4 1690.6C4489.1 1694.9 4486.4 1697.4 4482.2 1698.8H4454.7C4449.9 1698.3 4447 1698.4 4444.5 1698.8H4400C4391.9 1696.2 4388.5 1692.4 4387.8 1690.3C4386.8 1687.3 4398.2 1684.9 4410.4 1682L4410.5 1682.2C4410.5 1682.2 4425.7 1690.5 4445.2 1688.7C4461.1 1687.2 4477.3 1680.7 4488.3 1679.6C4489 1683.2 4489.7 1686.9 4489.4 1690.6Z" fill="#365DA4"/>
<path d="M4456.4 1628.5C4456.4 1628.5 4466.1 1634.9 4475.2 1636.6C4488.8 1639.1 4495.2 1636.3 4495.2 1636.3C4495.2 1636.3 4560.8 1471.5 4557.1 1415.8C4557 1414.5 4557 1413 4556.9 1411.5C4556.8 1401.8 4558.2 1389 4560.6 1374.1C4561.5 1368.7 4562.5 1363 4563.6 1357.1C4566.2 1343.4 4569.5 1328.6 4573.1 1313.5C4574.7 1306.8 4576.3 1300.1 4578 1293.4C4594.5 1227.5 4614.7 1162.6 4614.7 1162.6C4614.7 1162.6 4496.2 1123.9 4489.5 1160.1C4486.9 1174 4478.4 1229.5 4482.2 1314.4C4485.3 1382.8 4483.3 1436.1 4477.4 1497.9C4472.2 1552.3 4463.3 1599 4456.4 1628.5Z" fill="#365DA4"/>
<path d="M4556.8 1411.5C4556.7 1401.8 4558.1 1389 4560.5 1374.1C4561.4 1368.7 4562.4 1363 4563.5 1357.1C4566.1 1343.4 4569.4 1328.6 4573 1313.5C4574.6 1306.8 4576.2 1300.1 4577.9 1293.4C4575.6 1273.3 4573.7 1259.5 4573.7 1259.5C4573.7 1259.5 4524.5 1326.3 4556.8 1411.5Z" fill="#285493"/>
<path d="M4638.8 1690.6C4637.9 1701.1 4538.4 1693.7 4537.3 1690.3C4536.3 1687.3 4547.7 1684.9 4559.9 1682C4561.4 1681.6 4563 1681.3 4564.5 1680.9C4578.3 1677.5 4587.4 1667.3 4599.2 1658.4C4610.4 1650 4602.6 1609.1 4602.6 1609.1L4637.3 1596.7C4637.3 1596.7 4632.1 1637.8 4632.1 1660.4C4632.1 1668 4636.5 1673 4637.7 1679.6C4638.5 1683.2 4639.1 1686.9 4638.8 1690.6Z" fill="#B77446"/>
<path d="M4638.8 1690.6C4638.4 1694.9 4635.8 1697.4 4631.6 1698.8H4604.1C4599.3 1698.3 4596.4 1698.4 4593.9 1698.8H4549.5C4541.4 1696.2 4538 1692.4 4537.3 1690.3C4536.3 1687.3 4547.7 1684.9 4559.9 1682L4560.1 1682.2C4560.1 1682.2 4575.3 1690.5 4594.7 1688.7C4610.6 1687.2 4626.8 1680.7 4637.8 1679.6C4638.5 1683.2 4639.1 1686.9 4638.8 1690.6Z" fill="#365DA4"/>
<path d="M4543.2 1149.7C4543.2 1149.7 4581.7 1341.8 4588.2 1446.3C4594.7 1550.8 4602.8 1637.4 4602.8 1637.4C4602.8 1637.4 4611.2 1640.4 4620.9 1639.9C4631.1 1639.3 4639.2 1636.2 4639.2 1636.2C4639.2 1636.2 4677.4 1478.9 4664.7 1416C4652 1353.1 4662.6 1295 4668.7 1242.8C4677.4 1167.9 4643.9 1133.1 4620.5 1109.4C4596.9 1085.3 4543.2 1149.7 4543.2 1149.7Z" fill="#365DA4"/>
<path d="M4515.9 797.9C4512.1 766.6 4521.8 716.6 4584.2 724.6C4646.6 732.6 4666.3 793.9 4653.7 821.2C4641.1 848.5 4671.8 855 4681.5 884.4C4689.8 909.6 4692.7 940.9 4706.1 954.9C4749.3 1000.2 4664.6 1069.8 4613.6 1055.1C4520.6 1028.4 4508.6 1024.4 4511.9 951.3C4513.6 913.9 4542.7 899.4 4524.2 888.5C4479.5 862.4 4524.6 868.7 4515.9 797.9Z" fill="#163560"/>
<path d="M4553.4 837.5C4553.4 837.5 4560.5 878.8 4534.8 898.3L4553.3 926L4590.5 924.2L4607.7 879.8C4607.7 879.8 4602.4 878.8 4599.9 823.4L4553.4 837.5Z" fill="#A86337"/>
<path d="M4541.3 840.7C4541.3 840.7 4596.9 851.9 4603.3 817.1C4609.7 782.4 4621.2 760.4 4586 751.8C4550.8 743.2 4541.4 755.2 4536.5 766.2C4531.6 777.2 4527 836.9 4541.3 840.7Z" fill="#B77446"/>
<path d="M4529.6 878.8C4532 878.8 4575.7 864.2 4638.2 889.6C4638.2 889.6 4608.6 1059.2 4621.3 1091.6C4634 1124 4638.9 1152.7 4638.9 1152.7L4500.8 1154.4C4500.8 1154.4 4502.7 1043.3 4496.4 1004C4490.1 964.7 4529.6 878.8 4529.6 878.8Z" fill="#A86337"/>
<path d="M4638.1 1078.3C4637.3 1075 4636.7 1072.1 4636.5 1069.7C4634.7 1049.2 4637.8 1032.5 4642.9 1016.2C4643 1015.9 4643.1 1015.7 4643.1 1015.4C4643.2 1015 4643.4 1014.3 4643.6 1013.5C4643.6 1013.5 4643.6 1013.5 4643.6 1013.4C4643.8 1012.6 4644 1011.7 4644.3 1010.6C4644.4 1010.3 4644.5 1009.9 4644.5 1009.5C4648.1 993.6 4655.9 953.6 4657.9 948.1C4658.6 946.3 4659.4 943.2 4660 939.4C4662.1 927.4 4663 908.2 4656 900.2C4646.2 889.1 4611.7 880.8 4611.7 880.8C4604.9 891.5 4582.8 917.9 4553.8 913.1C4537 910.3 4534.4 877.7 4534.4 877.7C4516.4 880.2 4511.8 882.9 4511.8 882.9C4511.8 882.9 4468.6 909.8 4407.6 995.6C4405.7 998.3 4401.1 998 4389.8 995.8C4375.5 993 4346.2 993.4 4302 986.9C4302 986.9 4300.5 988 4300.1 992.8C4299.2 1003.5 4298.1 1006.6 4298.1 1006.6C4298.1 1006.6 4327.2 1020.3 4358.1 1030.1C4369 1033.6 4380.5 1036.8 4391.4 1039.3C4401.6 1041.6 4411.3 1043.2 4419.7 1043.6C4419.7 1043.6 4455 1030.1 4489.1 992.4C4491.1 1024 4495.5 1064.8 4492.8 1094.6C4491.3 1111.6 4479.6 1168.6 4482.6 1178.1C4488.7 1197.9 4535.3 1198.9 4576.9 1196.8C4577.8 1196.8 4578.7 1196.7 4579.6 1196.7C4586.1 1196.3 4592.4 1195.8 4598.3 1195.1C4609.4 1193.9 4619.1 1192.2 4625.4 1190.8C4633.5 1188.9 4643.7 1186.3 4652 1182.3C4658.4 1179.2 4663.6 1175.4 4665.9 1170.5C4662 1149 4642.8 1102.1 4638.1 1078.3Z" fill="#80BDCC"/>
<path d="M4568.5 743.2C4568.5 743.2 4567.5 755 4585.8 775C4604.1 795 4599.7 830.6 4599.7 830.6C4599.7 830.6 4630.5 772.7 4614.1 754.2C4597.6 735.7 4568.5 743.2 4568.5 743.2Z" fill="#163560"/>
<path d="M4590.8 727.9C4590.8 727.9 4563.2 718.7 4535.7 745.7C4523.9 757.3 4525.7 780.2 4532 793.5C4532 793.5 4541.7 765 4559.4 758.8C4577.2 752.6 4590.8 727.9 4590.8 727.9Z" fill="#163560"/>
<path d="M4558.6 823.6C4558.6 823.6 4557.1 827.7 4546.6 825.9C4546.6 825.9 4537.8 824.3 4538.6 819.7C4538.7 819.7 4547.7 817.3 4558.6 823.6Z" fill="white"/>
<path d="M4547.5 1133.2C4555.4 1159.9 4560 1182 4579.8 1196.8C4586.3 1196.4 4592.6 1195.9 4598.5 1195.2C4609.6 1194 4619.3 1192.3 4625.6 1190.9C4633.7 1189 4643.9 1186.4 4652.2 1182.4C4658.6 1179.3 4663.8 1175.5 4666.1 1170.6C4662.1 1149.1 4642.8 1102.2 4638.2 1078.4C4637.7 1076.1 4637.4 1074 4637.3 1072.2C4635.6 1050.9 4638.3 1033.4 4643 1016.3C4643.3 1015.4 4643.5 1014.5 4643.8 1013.6C4643.8 1013.6 4643.8 1013.6 4643.8 1013.5C4644 1012.9 4644.2 1012 4644.5 1010.7C4644.6 1010.4 4644.7 1010 4644.7 1009.6C4647.9 994.5 4656.2 947.2 4658.3 941C4659 939 4657.4 930.3 4658 926.2L4643.7 915.6C4643.7 915.6 4548.3 956.4 4527.2 1012.6C4506.2 1068.6 4536.1 1094.8 4547.5 1133.2Z" fill="#5F9AA8"/>
<path d="M4358.2 1030.2C4379.3 1036.9 4402.3 1042.8 4419.8 1043.6C4419.8 1043.6 4455.5 1029.9 4489.9 991.7C4491.3 985.2 4492.7 974.3 4484.9 977.5C4473.9 981.9 4433.1 1034.3 4417.6 1035.4C4406.6 1036.2 4375.2 1032.4 4358.2 1030.2Z" fill="#5F9AA8"/>
<path d="M4433.6 1015.3C4433.6 1015.3 4480.6 1038.9 4521.4 1048.7C4533.1 1051.5 4544.4 1053.5 4554.1 1054C4554.1 1054 4600.1 1041.9 4631.4 993.6C4687.6 907 4646.1 893.3 4646.1 893.3C4646.1 893.3 4603 920.2 4542 1006C4539.9 1009 4534.5 1008.3 4520.6 1005.5C4505.8 1002.5 4476.3 1002.9 4435.5 996.9C4435.5 996.9 4434.8 998.4 4434.4 1003.2C4433.6 1013.9 4433.6 1015.3 4433.6 1015.3Z" fill="#80BDCC"/>
<path d="M4389.9 995.9C4375.7 993.1 4345.5 992.9 4302.1 986.6C4298.7 985.5 4294.9 984.1 4291.3 982.3C4282 977.6 4257.2 974.5 4251.9 979.5C4246.6 984.5 4257.5 1004.6 4280.1 1005.3C4288 1005.5 4294 1006.1 4298.4 1006.8C4300.8 1007.9 4328.7 1020.9 4358.2 1030.2C4369.1 1033.7 4380.6 1036.9 4391.5 1039.4C4395.9 1019.9 4392.9 1004.7 4389.9 995.9Z" fill="#A86337"/>
<path d="M4521.4 1048.7C4512.5 1031 4515.9 1015.5 4520.6 1005.5C4505.8 1002.5 4476.1 1001.2 4435.3 995.2C4435.3 995.2 4435.3 995.2 4435.3 995.3C4430.9 994.1 4424.4 992.1 4418.6 989.2C4408.7 984.2 4382.2 980.9 4376.5 986.2C4370.8 991.5 4382.5 1013 4406.6 1013.7C4420 1014.1 4428.1 1015.5 4432.7 1016.6C4436.8 1018.6 4482.5 1039.4 4521.4 1048.7Z" fill="#B77446"/>
<path d="M1321.9 1432.9H1130.8V1624H1321.9V1432.9Z" fill="#D86713"/>
<path d="M1380.8 1432.9H1189.7V1624H1380.8V1432.9Z" fill="#F1A34F"/>
<path d="M1189.7 1432.9L1130.8 1468.6V1432.9H1189.7Z" fill="#C95C12"/>
<path d="M1226.5 1544.5H1152.4L1155.5 1535.8L1152.4 1526.5H1225.8L1221.3 1536.1L1226.5 1544.5Z" fill="#FFD5AB"/>
<path d="M1189.5 1526.5V1544.5H1152.4L1155.5 1535.8L1152.4 1526.5H1189.5Z" fill="#C95C12"/>
<path d="M1252.2 1323H1142.3V1432.9H1252.2V1323Z" fill="#D86713"/>
<path d="M1286 1323H1176.1V1432.9H1286V1323Z" fill="#F1A34F"/>
<path d="M1176.1 1323L1142.3 1343.5V1323H1176.1Z" fill="#C95C12"/>
<path d="M1306.2 1346.3H1219.7V1432.8H1306.2V1346.3Z" fill="#4A75CB"/>
<path d="M1332.8 1346.3H1246.3V1432.8H1332.8V1346.3Z" fill="#699DEE"/>
<path d="M1285.25 1405.67L1253.18 1412.07L1256.43 1428.35L1288.5 1421.95L1285.25 1405.67Z" fill="#EBF2F9"/>
<path d="M1261.9 1368.4H1230.7L1232 1364.7L1230.7 1360.8H1261.6L1259.7 1364.9L1261.9 1368.4Z" fill="#EBF2F9"/>
<path d="M1246.3 1360.8V1368.4H1230.7L1232 1364.7L1230.7 1360.8H1246.3Z" fill="#A6C7F9"/>
<path d="M1194.6 1346.8H1157.7L1159.2 1342.4L1157.7 1337.8H1194.3L1192 1342.6L1194.6 1346.8Z" fill="#FFD5AB"/>
<path d="M1176.2 1337.8V1346.8H1157.7L1159.2 1342.4L1157.7 1337.8H1176.2Z" fill="#C95C12"/>
<path d="M1194.6 1413.1H1157.7L1159.2 1408.8L1157.7 1404.1H1194.3L1192 1409L1194.6 1413.1Z" fill="#FFD5AB"/>
<path d="M1176.2 1404.1V1413.1H1157.7L1159.2 1408.8L1157.7 1404.1H1176.2Z" fill="#C95C12"/>
<path d="M1445.2 1471.9H1293.2V1623.9H1445.2V1471.9Z" fill="#4A75CB"/>
<path d="M1492.1 1471.9H1340.1V1623.9H1492.1V1471.9Z" fill="#699DEE"/>
<path d="M1479.38 1481.06L1443 1488.32L1446.7 1506.86L1483.08 1499.59L1479.38 1481.06Z" fill="#EBF2F9"/>
<path d="M1360.3 1496H1319.1L1320.8 1491.2L1319.1 1486H1359.9L1357.4 1491.4L1360.3 1496Z" fill="#EBF2F9"/>
<path d="M1339.7 1486V1496H1319.1L1320.8 1491.2L1319.1 1486H1339.7Z" fill="#A6C7F9"/>
<path d="M1360.3 1609.2H1319.1L1320.8 1604.4L1319.1 1599.2H1359.9L1357.4 1604.6L1360.3 1609.2Z" fill="#EBF2F9"/>
<path d="M1339.7 1599.2V1609.2H1319.1L1320.8 1604.4L1319.1 1599.2H1339.7Z" fill="#A6C7F9"/>
<path d="M1078.6 1657.1C1067.1 1657.1 1057.7 1666.4 1057.7 1678C1057.7 1689.5 1067 1698.9 1078.6 1698.9C1090.2 1698.9 1099.5 1689.6 1099.5 1678C1099.5 1666.5 1090.1 1657.1 1078.6 1657.1Z" fill="#1C468A"/>
<path d="M1078.6 1664.4C1071.2 1664.4 1065.2 1670.4 1065.2 1677.8C1065.2 1685.2 1071.2 1691.2 1078.6 1691.2C1086 1691.2 1092 1685.2 1092 1677.8C1092 1670.4 1086 1664.4 1078.6 1664.4Z" fill="#699DEE"/>
<path d="M1498.6 1657.1C1487.1 1657.1 1477.7 1666.4 1477.7 1678C1477.7 1689.5 1487 1698.9 1498.6 1698.9C1510.1 1698.9 1519.5 1689.6 1519.5 1678C1519.5 1666.5 1510.1 1657.1 1498.6 1657.1Z" fill="#1C468A"/>
<path d="M1498.6 1664.4C1491.2 1664.4 1485.2 1670.4 1485.2 1677.8C1485.2 1685.2 1491.2 1691.2 1498.6 1691.2C1506 1691.2 1512 1685.2 1512 1677.8C1512 1670.4 1506 1664.4 1498.6 1664.4Z" fill="#699DEE"/>
<path d="M1542.1 1623.9H1115.2L944.8 1158.5C943.3 1154.3 939.3 1151.4 934.9 1151.3L878.1 1149C872 1148.8 866.8 1153.5 866.6 1159.6C866.3 1165.7 871.1 1170.9 877.2 1171.1L926.6 1173.1L1091.7 1623.9H1054.6C1048.7 1623.9 1043.9 1628.7 1043.9 1634.6V1647.4C1043.9 1653.3 1048.7 1658.1 1054.6 1658.1H1542.2C1548.1 1658.1 1552.9 1653.3 1552.9 1647.4V1634.6C1552.8 1628.7 1548 1623.9 1542.1 1623.9Z" fill="#1C468A"/>
<path d="M870.5 1115.1C870.5 1115.1 891.8 1129.1 908.1 1129.7C924.5 1130.3 934.2 1146.7 936.5 1153.5C938.8 1160.3 932.2 1170.8 927.2 1164.6C919.6 1155.2 904 1162.5 889.1 1150.3C874.2 1138 852 1130.1 852 1130.1L870.5 1115.1Z" fill="#9E6138"/>
<path d="M680.9 885C680.9 885 726.6 1048.4 763 1081.3C781.9 1098.4 886.6 1168.2 895.2 1146C895.2 1146 908.1 1130.2 900.9 1120.9C900.9 1120.9 812.9 1057.6 806.1 1053.4C794.2 1046 808.9 897.7 777.6 872.1C746.4 846.5 698.4 839.9 680.9 885Z" fill="#D88029"/>
<path d="M865.3 1698.5C865.3 1698.5 861.9 1698.6 856.3 1698.8H770.1C768.1 1698.6 766.7 1698.3 766 1697.9C758.2 1694.2 761.8 1660 761.8 1660C761.8 1660 795.3 1632 800.4 1652.8C805.5 1673.6 833.4 1682.4 849.2 1684.6C865.1 1687 865.3 1698.5 865.3 1698.5Z" fill="#233862"/>
<path d="M592.9 1275.7C609.5 1309.6 648.8 1356.7 663.4 1393.3C666.8 1401.9 668.9 1410 668.9 1417.1C669.2 1499.1 758.3 1660.9 758.3 1660.9C766.8 1666.4 803 1655.4 803 1655.4C803 1655.4 798.8 1619.5 778 1495.3C766.5 1426.8 747.2 1324.8 732.1 1247.1C728.2 1227.1 724.6 1208.7 721.5 1192.9C714.8 1158.8 710.4 1136.8 710.4 1136.8L675.9 1137.4L582.6 1138.9C582.7 1138.9 544 1176 592.9 1275.7Z" fill="#2B478B"/>
<path d="M592.9 1275.7C609.5 1309.6 648.8 1356.7 663.4 1393.3C684 1349.8 715.2 1283.6 732.2 1247C728.3 1227 724.7 1208.6 721.6 1192.8C708.2 1176.4 690.9 1155.3 676 1137.3L582.7 1138.8C582.7 1138.9 544 1176 592.9 1275.7Z" fill="#233862"/>
<path d="M480 1698.8H433.2C428.8 1695.4 425.1 1689.5 423.5 1681.3C420.8 1667.3 404.7 1660.3 400.8 1649C396.9 1637.6 413.7 1620.7 413.7 1620.7L419.3 1612.8L448.5 1618.4C448.5 1618.4 451.5 1638.8 451.3 1654.1C451.1 1669.5 456.9 1685.8 470.7 1688.2C480.8 1689.9 480.8 1695.7 480 1698.8Z" fill="#233862"/>
<path d="M609.2 1477.9C591.7 1509.7 462.4 1657.5 462.4 1657.5C462.4 1657.5 421.7 1643.7 414.4 1619C414.4 1619 490.9 1493.4 525.6 1439.8C535.5 1424.5 541.1 1190.5 576.5 1147.9C620.9 1094.4 701.3 1195.9 701.3 1195.9C701.3 1195.9 676.1 1277.7 668.3 1303.5C651 1360.6 621.3 1456 609.2 1477.9Z" fill="#2B478B"/>
<path d="M858.3 1127.3C858.3 1127.3 879.6 1141.3 895.9 1141.9C912.3 1142.5 922 1158.9 924.3 1165.7C926.6 1172.5 920 1183 915 1176.8C907.4 1167.4 891.8 1174.7 876.9 1162.5C862 1150.2 839.8 1142.3 839.8 1142.3L858.3 1127.3Z" fill="#AB7041"/>
<path d="M781 855.2C793.8 833.9 799.3 820.4 799.3 820.4L769.2 767.6C751.7 817.1 711.1 828.3 711.1 828.3C711.1 828.3 758.5 880.3 796.6 882.9C796.6 882.9 792.5 868.9 781 855.2Z" fill="#9C5F33"/>
<path d="M810 823.7C810 823.7 750.3 811 758.8 773.9C767.3 736.8 765.3 710.2 803.8 716.8C842.3 723.3 846.4 739.2 846.6 752.3C846.7 765.3 825.7 826.1 810 823.7Z" fill="#AB7041"/>
<path d="M758.2 776.5C758.2 776.5 777.8 730 831.8 742.6C868.8 751.2 859.1 713.6 856.9 707.4C856.9 707.4 828.1 702 798.4 697.3C736 687.3 754.8 767.1 758.2 776.5Z" fill="#233862"/>
<path d="M808.3 937.9C807.1 956.4 801.5 984.5 793.9 1015.7C790.9 1027.8 787.7 1040.3 784.3 1052.9C778.8 1073.4 773 1094 767.1 1113.4L766.9 1114.1C766.5 1116.1 765.8 1118.2 765.2 1120.1C760 1137.2 755.1 1153.1 750.8 1166.5C742.6 1192.2 742.5 1206.6 735.9 1209.5C722.7 1215.3 670.7 1209.1 639.5 1195.6C613.2 1184.4 573 1150.6 573.2 1133.6C573.4 1113.9 599.9 1054.5 617.5 985.1C639.2 900.4 687.2 832.7 727.2 818.8C730.2 817.8 733.4 824.1 745 835.3C755.7 845.6 769.2 852 782 853.4L789.6 866.1C800 884.1 810.2 907.6 808.3 937.9Z" fill="#E2923D"/>
<path d="M784.3 1052.9C781.4 1065 787.7 1040.3 784.3 1052.9C778.8 1073.4 773 1094 767.1 1113.4L766.9 1114.1C766.5 1116.1 765.8 1118.2 765.2 1120.1C760 1137.2 755.1 1153.1 750.8 1166.5C667.5 1060.7 714.7 934 714.7 934L784.3 1052.9Z" fill="#D88029"/>
<path d="M667.6 898.3C667.6 898.3 713.3 1061.7 749.7 1094.6C768.6 1111.7 873.3 1181.5 881.9 1159.3C881.9 1159.3 894.8 1143.5 887.6 1134.2C887.6 1134.2 799.6 1070.9 792.8 1066.7C780.9 1059.3 795.6 911 764.3 885.4C733.1 859.8 685.1 853.2 667.6 898.3Z" fill="#E2923D"/>
<path d="M791.2 753.4C791.2 753.4 797.9 742.3 815.8 740.5C815.8 740.5 763.1 741.6 761 757.8C758.8 774 758.2 776.5 758.2 776.5C758.2 776.5 786 777.6 791.2 753.4Z" fill="#233862"/>
<path d="M4177.7 1022.6C4177.7 1022.6 4148.7 1036.1 4117.7 1045.9C4106.7 1049.3 4095.4 1052.5 4084.4 1055C4074.3 1057.3 4064.6 1058.9 4056.1 1059.1C4056.1 1059.1 4055.4 1058.9 4054 1058.2C4046.2 1054.8 4015.6 1040.4 3985.9 1007.7C3983.6 1005 3981.1 1002.2 3978.8 999.3C3977 997.2 3975.1 976.9 3973.7 955.7C3973.5 955.5 3973.5 955.5 3973.5 955.5C3971.9 930.6 3970.7 904.1 3970.7 904.1C3970.7 904.1 4010.7 914.8 4068.2 1011.6C4069.8 1014.3 4074.6 1013.9 4085.9 1011.8C4100.4 1009.1 4129.6 1009.3 4173.7 1002.9C4173.7 1002.9 4175.3 1004 4175.8 1008.8C4176.5 1019.4 4177.7 1022.6 4177.7 1022.6Z" fill="#F4BE61"/>
<path d="M4054 1058.3C4046.2 1054.9 4015.6 1040.5 3985.9 1007.8C3983.6 1005.1 3981.1 1002.3 3978.8 999.4C3977 997.3 3975.1 977 3973.7 955.8C3979.3 961.2 4043.7 1023.3 4054 1058.3Z" fill="#F2A83D"/>
<path d="M3909.4 735.3C3909.4 735.3 3905.7 727.9 3887.4 729.9C3869.1 731.9 3837.4 735.3 3837.2 835C3837.2 845.9 3771.3 945.4 3845.6 1039.2L3898.6 905.2L3909.4 735.3Z" fill="#163560"/>
<path d="M3914.7 736.7C3914.7 736.7 3895.2 730.2 3884.9 739.9C3874.6 749.6 3880.4 762.4 3880.4 762.4L3914.7 736.7Z" fill="#C65447"/>
<path d="M3976.4 774.8C3976.4 774.8 3976 732.1 3906.8 737C3895 737.8 3884.3 744.5 3879 755C3871.2 770.1 3867.8 796.7 3893 839.4L3976.4 774.8Z" fill="#163560"/>
<path d="M3888.7 900.4L3904.3 961L3949.4 963.2L3971.8 929.8C3950.8 914 3947.8 886.3 3948.2 869.9C3948.2 869.7 3948.2 869.6 3948.2 869.4C3948.4 861.7 3949.3 856.5 3949.3 856.5L3917.3 846.8L3892.9 839.4C3895.1 857.9 3895 871.2 3894 880.6C3892.4 895.3 3888.7 900.4 3888.7 900.4Z" fill="#E49963"/>
<path d="M3843.1 1213.7L4006.7 1213.5C4006.7 1213.5 3986.3 1104.5 3997.6 1068.8C4008.9 1033.1 3997 980.9 3997 980.9C3980.6 942.1 3976.4 905.8 3969.1 903.9C3965.1 902.8 3961.8 900.7 3957.9 899.9C3893.6 887.1 3841.4 910.4 3841.4 910.4C3827 946.4 3857.9 973.4 3859.4 1054.7C3860.9 1134.6 3843.1 1213.7 3843.1 1213.7Z" fill="#E49963"/>
<path d="M4016.5 1221.3C4016.5 1221.3 3891.9 1246.9 3820.6 1220.4C3816.7 1218.8 3831.6 1165.4 3842 1128.8C3847.1 1110.8 3851 1096.8 3850.7 1095C3848.2 1045.2 3838.3 1002.8 3833.7 969.9C3832.3 961.2 3831.4 953.5 3831.2 946.2V942.5C3831 930.6 3832.6 921 3836.7 913C3844.5 898.6 3886.6 898.4 3886.6 898.4C3890.7 903.2 3913.5 919 3940.6 918.7C3968 918.5 3954.4 899.3 3954.4 899.3C3955.5 899.5 3957.4 899.8 3958.3 900C3971.9 903 3981.1 909.4 3981.1 909.4C4002.9 933.1 4010.1 1051.4 4009.6 1055.3C4008.7 1069.7 4016.5 1221.3 4016.5 1221.3Z" fill="#F4BE61"/>
<path d="M3894 880.6C3913.4 870.3 3943.4 869.8 3948.2 869.8C3948.6 869.8 3948.9 869.8 3948.9 869.8C3948.9 869.8 3948.7 869.6 3948.2 869.3C3945 867 3930.6 856.4 3917.3 846.8L3892.9 839.4C3895.1 857.9 3895 871.2 3894 880.6Z" fill="#D68D5D"/>
<path d="M3960.2 870.7C3960.2 870.7 3891.4 873.8 3890.1 831.3C3888.8 788.7 3879.1 760.5 3922.9 756.7C3966.7 752.9 3975.8 768.9 3979.7 783C3983.7 797.1 3978.1 868.8 3960.2 870.7Z" fill="#E49963"/>
<path d="M3953.3 773.5C3953.3 773.5 3982.7 793.6 3978 816.9C3978 816.9 3992.6 809.3 3991.2 787C3989.8 764.8 3968.5 749.5 3949.7 748.3C3930.9 747.1 3916.7 748.7 3916.7 748.7L3953.3 773.5Z" fill="#163560"/>
<path d="M3958.4 766.1C3970.6 772.5 3920.2 777.9 3917.1 798.3C3914 818.7 3890 826.5 3890 826.5C3890 826.5 3859.5 714 3958.4 766.1Z" fill="#163560"/>
<path d="M3998.4 1045.2C3998.4 1045.2 3943.5 1118.5 3842.1 1128.8C3847.2 1110.8 3851.1 1096.8 3850.8 1095C3848.3 1045.2 3838.4 1002.8 3833.8 969.9C3832.4 961.2 3831.5 953.5 3831.3 946.2V942.5C3843 944.8 3861.2 956.9 3869 958.7C3929.4 972.9 3998.4 1045.2 3998.4 1045.2Z" fill="#F2A83D"/>
<path d="M3968.5 847.5C3968.5 847.5 3968 851.8 3957.4 852.4C3957.4 852.4 3948.5 852.9 3948.2 848.2C3948.2 848.3 3956.3 844 3968.5 847.5Z" fill="white"/>
<path d="M4059.7 1028C4059.7 1028 4012.7 1051.5 3971.9 1061.2C3960.2 1064 3948.9 1066 3939.2 1066.4C3939.2 1066.4 3895.3 1053 3861.9 1006.4C3797.2 916.4 3847.2 906.7 3847.2 906.7C3847.2 906.7 3890.4 933.5 3951.4 1018.7C3953.5 1021.7 3958.9 1021 3972.8 1018.2C3987.6 1015.2 4017.1 1015.6 4057.9 1009.6C4057.9 1009.6 4058.6 1011.1 4059 1015.9C4059.7 1026.7 4059.7 1028 4059.7 1028Z" fill="#F4BE61"/>
<path d="M4177.7 1022.6C4177.7 1022.6 4148.6 1036.2 4117.7 1045.9C4106.8 1049.4 4095.3 1052.6 4084.4 1055C4080 1035.6 4083 1020.5 4086 1011.8C4100.3 1009 4131 1008.8 4175.2 1002.4L4177.7 1022.6Z" fill="#A86337"/>
<path d="M4164.2 1005.2C4164.2 1005.2 4175.4 1003 4184.7 998.4C4194 993.8 4218.8 990.7 4224.1 995.6C4229.4 1000.5 4218.5 1020.6 4195.9 1021.2C4173.2 1021.8 4166.7 1025.5 4166.7 1025.5L4164.2 1005.2Z" fill="#A86337"/>
<path d="M4060.8 1029.3C4060.8 1029.3 4012.7 1051.5 3971.9 1061.2C3980.9 1043.6 3977.4 1028.2 3972.7 1018.3C3987.5 1015.3 4017.2 1014 4058 1008.1C4058 1008.1 4058.5 1011.2 4058.9 1016C4059.7 1026.7 4060.8 1029.3 4060.8 1029.3Z" fill="#B77446"/>
<path d="M3556 1215.3V1213.7H3385.2C3364 1213.7 3347 1230.4 3347 1250.7C3347 1269.2 3360.8 1284.4 3379 1287.2V1701.7H4021.3V1215.3H3556V1215.3Z" fill="#AA443E"/>
<path d="M4178.7 959.8H4076.1V1061.7H4178.7V959.8Z" fill="#D86713"/>
<path d="M4210.3 959.8H4107.7V1061.7H4210.3V959.8Z" fill="#F1A34F"/>
<path d="M4107.7 959.8L4076.1 978.9V959.8H4107.7Z" fill="#C95C12"/>
<path d="M4125 981.9H4090.5L4091.9 977.9L4090.5 973.6H4124.6L4122.5 978L4125 981.9Z" fill="#FFD5AB"/>
<path d="M4107.7 973.6V981.9H4090.5L4091.9 977.9L4090.5 973.6H4107.7Z" fill="#C95C12"/>
<path d="M4125 1043.4H4090.5L4091.9 1039.4L4090.5 1035.1H4124.6L4122.5 1039.6L4125 1043.4Z" fill="#FFD5AB"/>
<path d="M4107.7 1035.1V1043.4H4090.5L4091.9 1039.4L4090.5 1035.1H4107.7Z" fill="#C95C12"/>
<path d="M4052.8 1009.4C4052.8 1009.4 4064.7 1007.1 4074.7 1002.2C4084.6 997.3 4111.1 994 4116.8 999.2C4122.4 1004.5 4110.8 1025.9 4086.7 1026.5C4062.6 1027.1 4055.6 1031.1 4055.6 1031.1L4052.8 1009.4Z" fill="#B77446"/>
<path d="M4199.5 1215.3H3557.2V1701.7H4199.5V1215.3Z" fill="#C65447"/>
<path d="M4294.2 1213.7H3385.2C3364 1213.7 3347 1230.4 3347 1250.7C3347 1271.2 3364 1287.7 3385.2 1287.7H4294.2C4317.7 1287.7 4336.7 1271 4336.7 1250.7C4336.7 1230.4 4317.6 1213.7 4294.2 1213.7Z" fill="#E57970"/>
<path d="M3419 997.2H3303.7V1099.6H3419V997.2Z" fill="#8CB3ED"/>
<path d="M3440.1 997.2H3324.8V1099.6H3440.1V997.2Z" fill="#A6C7F9"/>
<path d="M3597 981.8H3451.7V1099.6H3597V981.8Z" fill="#8CB3ED"/>
<path d="M3623.5 981.8H3478.2V1099.6H3623.5V981.8Z" fill="#A6C7F9"/>
<path d="M3497.9 1421C3497.9 1421 3450.1 1456.6 3440.7 1454.4C3431.4 1452.2 3475.7 1416 3475.7 1416C3459 1408 3407.2 1413 3407.2 1413C3407.2 1413 3389.9 1468.6 3381.4 1464.2C3372.9 1459.8 3399.2 1415.7 3399.2 1415.7C3380.6 1414.6 3357.9 1428.4 3357.9 1428.4C3326.7 1453 3359.9 1491.7 3359.9 1491.7C3359.9 1491.7 3353.5 1510.9 3333.8 1528.3C3333.8 1528.3 3305.7 1549.1 3303.7 1586.2L3308.8 1586.7C3308.8 1586.7 3317 1551.8 3331.8 1535.5C3332.4 1534.9 3333.1 1534.2 3334 1533.3C3336.4 1531.1 3338 1529.4 3339.2 1528.2C3346.5 1521.2 3356.6 1512.2 3361.5 1511.3C3361.5 1511.3 3361.3 1510.4 3361.3 1508.9C3361.4 1509.7 3361.4 1510.5 3361.5 1511.3C3363.2 1530.9 3401.2 1548 3424.5 1551.5C3447.9 1555 3440.6 1545.4 3432.6 1531.2C3424.6 1517 3399.1 1510.6 3393.3 1504C3387.5 1497.4 3399.5 1497.4 3413.6 1503.9C3427.7 1510.3 3429.6 1527.5 3452.2 1538.3C3474.8 1549.1 3508.8 1511.6 3508.8 1511.6C3490.8 1510.7 3465.1 1491.1 3466 1485.2C3466.9 1479.3 3509.6 1495.5 3516.9 1496.3C3524.2 1497.1 3540.8 1488 3543.4 1458.6C3546.1 1429.2 3497.9 1421 3497.9 1421Z" fill="#82B378"/>
<path d="M3243.9 1443.1C3243.9 1443.1 3296.7 1413.5 3272.1 1373.4C3272.1 1373.4 3252.4 1348.7 3231.2 1342.4C3231.2 1342.4 3242.5 1402.3 3231.2 1403.7C3219.9 1405.1 3223.5 1336.1 3223.5 1336.1C3223.5 1336.1 3167.9 1309.3 3146 1311.4C3146 1311.4 3180.5 1369.9 3169.2 1368.4C3157.9 1367 3119.2 1307.8 3119.2 1307.8C3119.2 1307.8 3062.2 1297.2 3053 1331C3043.8 1364.8 3058.6 1381.7 3067.1 1383.8C3075.6 1385.9 3129.8 1385.2 3128.4 1392.3C3127 1399.3 3090.4 1410.6 3069.9 1404.3C3069.9 1404.3 3092.4 1459.9 3122 1457.1C3151.6 1454.3 3160.7 1436 3179 1434.6C3197.3 1433.2 3210.7 1438.1 3201.5 1443.1C3192.3 1448.1 3161.4 1444.7 3146.6 1457.3C3131.8 1469.9 3119.8 1477.6 3147.3 1483.3C3174.8 1489 3224.1 1485.4 3233.9 1464.3C3243.9 1443.1 3243.9 1443.1 3243.9 1443.1Z" fill="#A8D29F"/>
<path d="M3258 1494.5C3243.2 1467 3243.9 1443.1 3243.9 1443.1C3227 1389.6 3079.1 1341.7 3079.1 1341.7C3267.1 1417.8 3234 1464.2 3234 1464.2C3239.1 1467.2 3246.7 1481.3 3251.9 1492.1C3252.7 1493.9 3253.8 1496.5 3255.6 1499.9C3256.3 1501.5 3256.9 1502.8 3257.3 1503.7C3267 1527.9 3261.9 1569.8 3261.9 1569.8L3267.8 1571.4C3280.8 1529.2 3258 1494.5 3258 1494.5Z" fill="#82B378"/>
<path d="M3328 1402.3C3328 1402.3 3258.4 1363.3 3290.9 1310.4C3290.9 1310.4 3316.9 1277.9 3344.7 1269.6C3344.7 1269.6 3329.8 1348.5 3344.7 1350.4C3359.6 1352.3 3354.9 1261.3 3354.9 1261.3C3354.9 1261.3 3428.2 1226 3457 1228.8C3457 1228.8 3411.5 1305.9 3426.4 1304C3441.3 1302.1 3492.3 1224.2 3492.3 1224.2C3492.3 1224.2 3567.5 1210.3 3579.6 1254.8C3591.7 1299.3 3572.2 1321.6 3561 1324.4C3549.8 1327.2 3478.4 1326.3 3480.2 1335.5C3482.1 1344.8 3530.3 1359.6 3557.3 1351.3C3557.3 1351.3 3527.6 1424.6 3488.6 1420.9C3449.6 1417.2 3437.5 1393 3413.4 1391.2C3389.3 1389.3 3371.6 1395.8 3383.7 1402.3C3395.8 1408.8 3436.6 1404.4 3456.1 1421C3475.6 1437.6 3491.4 1447.8 3455.2 1455.2C3419 1462.6 3354 1458 3341 1430.1C3328 1402.3 3328 1402.3 3328 1402.3Z" fill="#A8D29F"/>
<path d="M3545.2 1268.6C3545.2 1268.6 3350.2 1331.7 3328 1402.3C3328 1402.3 3328.9 1433.9 3309.4 1470.1C3309.4 1470.1 3279.3 1515.8 3296.5 1571.3L3304.2 1569.2C3304.2 1569.2 3297.4 1514.1 3310.2 1482.1C3310.7 1480.9 3311.5 1479.2 3312.4 1477.2C3314.7 1472.6 3316.3 1469.3 3317.3 1466.9C3324.3 1452.6 3334.3 1434.1 3340.9 1430.2C3341 1430.2 3297.3 1368.9 3545.2 1268.6Z" fill="#82B378"/>
<path d="M3189.2 1555.5C3189.2 1630.8 3250.3 1691.9 3325.6 1691.9C3400.9 1691.9 3462 1630.8 3462 1555.5H3189.2Z" fill="#F1A34F"/>
<path d="M3359.2 1690.8C3353.7 1691.5 3348 1691.8 3342.3 1691.8C3267 1691.8 3205.9 1630.7 3205.9 1555.4H3239.8C3239.7 1625 3291.9 1682.5 3359.2 1690.8Z" fill="#FFB973"/>
<path d="M3447.1 1682H3204.2C3194.9 1682 3187.4 1689.5 3187.4 1698.8H3464C3463.9 1689.5 3456.4 1682 3447.1 1682Z" fill="#F1A34F"/>
<path d="M3465.1 1555.5H3184.7V1559.7H3465.1V1555.5Z" fill="#D86713"/>
<path d="M2073.4 1296L2046.3 1194.6C2045.3 1190.8 2041.3 1188.5 2037.5 1189.5L1868.9 1234.6C1865.1 1235.6 1862.8 1239.6 1863.8 1243.4L1890.9 1344.8C1891.9 1348.6 1895.9 1350.9 1899.7 1349.9L2068.3 1304.8C2072.1 1303.8 2074.4 1299.8 2073.4 1296Z" fill="#F1A34F"/>
<path d="M2046.3 1194.6C2045.3 1190.8 2041.3 1188.5 2037.5 1189.5L1868.9 1234.6C1865.1 1235.6 1862.8 1239.6 1863.8 1243.4L1968.6 1269.7L2047.1 1197.5L2046.3 1194.6Z" fill="#D86713"/>
<path d="M2061 1291.3C2060.6 1289.8 2059 1288.8 2057.4 1289.2L2025.8 1297.7C2024.3 1298.1 2023.3 1299.7 2023.7 1301.3C2024.1 1302.8 2025.7 1303.8 2027.3 1303.4L2058.9 1294.9C2060.5 1294.4 2061.4 1292.9 2061 1291.3Z" fill="#D86713"/>
<path d="M1935.8 1401.5H1635.1V1702.2H1935.8V1401.5Z" fill="#D86713"/>
<path d="M2028.5 1401.5H1727.8V1702.2H2028.5V1401.5Z" fill="#F1A34F"/>
<path d="M1727.8 1401.5L1635.1 1457.7V1401.5H1727.8Z" fill="#C95C12"/>
<path d="M1785.7 1577.1H1669.2L1674.1 1563.5L1669.2 1548.8H1784.6L1777.6 1564L1785.7 1577.1Z" fill="#FFD5AB"/>
<path d="M1727.4 1548.8V1577.1H1669.2L1674.1 1563.5L1669.2 1548.8H1727.4Z" fill="#C95C12"/>
<path d="M2455 1525.9H2282.1V1698.8H2455V1525.9Z" fill="#D86713"/>
<path d="M2508.3 1525.9H2335.4V1698.8H2508.3V1525.9Z" fill="#F1A34F"/>
<path d="M2335.4 1525.9L2282.1 1558.2V1525.9H2335.4Z" fill="#C95C12"/>
<path d="M2540.1 1562.6H2403.9V1698.8H2540.1V1562.6Z" fill="#4A75CB"/>
<path d="M2582.1 1562.6H2445.9V1698.8H2582.1V1562.6Z" fill="#699DEE"/>
<path d="M2507.18 1656.05L2456.68 1666.13L2461.81 1691.82L2512.31 1681.74L2507.18 1656.05Z" fill="#EBF2F9"/>
<path d="M2470.4 1597.3H2421.2L2423.2 1591.6L2421.2 1585.4H2469.9L2466.9 1591.8L2470.4 1597.3Z" fill="#EBF2F9"/>
<path d="M2445.8 1585.4V1597.3H2421.2L2423.2 1591.6L2421.2 1585.4H2445.8Z" fill="#A6C7F9"/>
<path d="M2364.5 1563.3H2306.4L2308.8 1556.5L2306.4 1549.2H2364L2360.4 1556.8L2364.5 1563.3Z" fill="#FFD5AB"/>
<path d="M2335.4 1549.2V1563.3H2306.4L2308.8 1556.5L2306.4 1549.2H2335.4Z" fill="#C95C12"/>
<path d="M2364.5 1667.7H2306.4L2308.8 1660.9L2306.4 1653.6H2364L2360.4 1661.2L2364.5 1667.7Z" fill="#FFD5AB"/>
<path d="M2335.4 1653.6V1667.7H2306.4L2308.8 1660.9L2306.4 1653.6H2335.4Z" fill="#C95C12"/>
<path d="M2130.6 1464H1891.4V1703.2H2130.6V1464Z" fill="#4A75CB"/>
<path d="M2204.4 1464H1965.2V1703.2H2204.4V1464Z" fill="#699DEE"/>
<path d="M2184.4 1478.4L2127.13 1489.83L2132.94 1518.96L2190.21 1507.52L2184.4 1478.4Z" fill="#EBF2F9"/>
<path d="M1996.9 1501.8H1932.1L1934.8 1494.3L1932.1 1486.1H1996.3L1992.4 1494.6L1996.9 1501.8Z" fill="#EBF2F9"/>
<path d="M1964.5 1486.1V1501.8H1932.1L1934.8 1494.3L1932.1 1486.1H1964.5Z" fill="#A6C7F9"/>
<path d="M1996.9 1680H1932.1L1934.8 1672.4L1932.1 1664.3H1996.3L1992.4 1672.7L1996.9 1680Z" fill="#EBF2F9"/>
<path d="M1964.5 1664.3V1680H1932.1L1934.8 1672.4L1932.1 1664.3H1964.5Z" fill="#A6C7F9"/>
<path d="M1877.7 1200.3H1785.6L1789.4 1189.6L1785.6 1177.9H1876.8L1871.2 1190L1877.7 1200.3Z" fill="#EBF2F9"/>
<path d="M1831.6 1177.9V1200.3H1785.6L1789.4 1189.6L1785.6 1177.9H1831.6Z" fill="#A6C7F9"/>
<path d="M3765 600.5H3286.7V617.3H3765V600.5Z" fill="#91B6ED"/>
<path d="M3795.2 459.2H3173.8V476H3795.2V459.2Z" fill="#699DEE"/>
<path d="M3765 766.9H3286.7V783.7H3765V766.9Z" fill="#91B6ED"/>
<path d="M3765 933.3H3286.7V950.1H3765V933.3Z" fill="#91B6ED"/>
<path d="M3765 1099.7H3286.7V1116.5H3765V1099.7Z" fill="#91B6ED"/>
<path d="M3439 631.1H3303.2V766.9H3439V631.1Z" fill="#D86713"/>
<path d="M3480.8 631.1H3345V766.9H3480.8V631.1Z" fill="#F1A34F"/>
<path d="M3345 631.1L3303.2 656.5V631.1H3345Z" fill="#C95C12"/>
<path d="M3505.7 660H3398.8V766.9H3505.7V660Z" fill="#4A75CB"/>
<path d="M3538.7 660H3431.8V766.9H3538.7V660Z" fill="#699DEE"/>
<path d="M3479.93 733.969L3440.22 741.898L3444.25 762.099L3483.97 754.169L3479.93 733.969Z" fill="#EBF2F9"/>
<path d="M3451 687.8H3412.4L3414 683.3L3412.4 678.4H3450.7L3448.3 683.4L3451 687.8Z" fill="#EBF2F9"/>
<path d="M3431.7 678.4V687.8H3412.4L3414 683.3L3412.4 678.4H3431.7Z" fill="#A6C7F9"/>
<path d="M3367.9 660.3H3322.2L3324.1 654.9L3322.2 649.2H3367.5L3364.7 655.1L3367.9 660.3Z" fill="#FFD5AB"/>
<path d="M3345.1 649.2V660.3H3322.2L3324.1 654.9L3322.2 649.2H3345.1Z" fill="#C95C12"/>
<path d="M3367.9 742.3H3322.2L3324.1 736.9L3322.2 731.2H3367.5L3364.7 737.1L3367.9 742.3Z" fill="#FFD5AB"/>
<path d="M3345.1 731.2V742.3H3322.2L3324.1 736.9L3322.2 731.2H3345.1Z" fill="#C95C12"/>
<path d="M3476 493.8H3369.1V600.7H3476V493.8Z" fill="#4A75CB"/>
<path d="M3509 493.8H3402.1V600.7H3509V493.8Z" fill="#699DEE"/>
<path d="M3450.24 567.276L3410.52 575.206L3414.56 595.406L3454.27 587.476L3450.24 567.276Z" fill="#EBF2F9"/>
<path d="M3421.3 521.1H3382.7L3384.3 516.6L3382.7 511.7H3421L3418.6 516.8L3421.3 521.1Z" fill="#EBF2F9"/>
<path d="M3402 511.7V521.1H3382.7L3384.3 516.6L3382.7 511.7H3402Z" fill="#A6C7F9"/>
<path d="M3598.8 524.9H3523.2V600.5H3598.8V524.9Z" fill="#D86713"/>
<path d="M3622.1 524.9H3546.5V600.5H3622.1V524.9Z" fill="#F1A34F"/>
<path d="M3546.5 524.9L3523.2 539.1V524.9H3546.5Z" fill="#C95C12"/>
<path d="M3559.2 541.3H3533.8L3534.9 538.3L3533.8 535.1H3559L3557.5 538.4L3559.2 541.3Z" fill="#FFD5AB"/>
<path d="M3546.5 535.1V541.3H3533.8L3534.9 538.3L3533.8 535.1H3546.5Z" fill="#C95C12"/>
<path d="M3559.2 586.9H3533.8L3534.9 584L3533.8 580.7H3559L3557.5 584.1L3559.2 586.9Z" fill="#FFD5AB"/>
<path d="M3546.5 580.7V586.9H3533.8L3534.9 584L3533.8 580.7H3546.5Z" fill="#C95C12"/>
<path d="M3393.3 844.5H3304.5V933.3H3393.3V844.5Z" fill="#4A75CB"/>
<path d="M3420.6 844.5H3331.8V933.3H3420.6V844.5Z" fill="#699DEE"/>
<path d="M3371.83 905.289L3338.88 911.871L3342.23 928.639L3375.18 922.057L3371.83 905.289Z" fill="#EBF2F9"/>
<path d="M3347.8 867.2H3315.7L3317.1 863.4L3315.7 859.4H3347.5L3345.6 863.6L3347.8 867.2Z" fill="#EBF2F9"/>
<path d="M3331.8 859.4V867.2H3315.7L3317.1 863.4L3315.7 859.4H3331.8Z" fill="#A6C7F9"/>
<path d="M3520.3 844.5H3431.5V933.3H3520.3V844.5Z" fill="#4A75CB"/>
<path d="M3547.6 844.5H3458.8V933.3H3547.6V844.5Z" fill="#699DEE"/>
<path d="M3498.83 905.283L3465.88 911.865L3469.23 928.633L3502.18 922.051L3498.83 905.283Z" fill="#EBF2F9"/>
<path d="M3474.8 867.2H3442.7L3444.1 863.4L3442.7 859.4H3474.5L3472.6 863.6L3474.8 867.2Z" fill="#EBF2F9"/>
<path d="M3458.8 859.4V867.2H3442.7L3444.1 863.4L3442.7 859.4H3458.8Z" fill="#A6C7F9"/>
<path d="M3616.6 702.1H3551.8V766.9H3616.6V702.1Z" fill="#D86713"/>
<path d="M3636.6 702.1H3571.8V766.9H3636.6V702.1Z" fill="#F1A34F"/>
<path d="M3571.8 702.1L3551.8 714.2V702.1H3571.8Z" fill="#C95C12"/>
<path d="M3648.5 715.9H3597.5V766.9H3648.5V715.9Z" fill="#4A75CB"/>
<path d="M3664.2 715.9H3613.2V766.9H3664.2V715.9Z" fill="#699DEE"/>
<path d="M3636.09 751.503L3617.16 755.282L3619.08 764.892L3638.01 761.113L3636.09 751.503Z" fill="#EBF2F9"/>
<path d="M3622.4 729.4H3603.9L3604.7 727.3L3603.9 725H3622.2L3621.1 727.4L3622.4 729.4Z" fill="#EBF2F9"/>
<path d="M3613.1 725V729.4H3603.9L3604.7 727.3L3603.9 725H3613.1Z" fill="#A6C7F9"/>
<path d="M3582.7 716.3H3560.9L3561.8 713.8L3560.9 711H3582.5L3581.2 713.9L3582.7 716.3Z" fill="#FFD5AB"/>
<path d="M3571.8 711V716.3H3560.9L3561.8 713.8L3560.9 711H3571.8Z" fill="#C95C12"/>
<path d="M3582.7 755.4H3560.9L3561.8 752.9L3560.9 750.1H3582.5L3581.2 753L3582.7 755.4Z" fill="#FFD5AB"/>
<path d="M3571.8 750.1V755.4H3560.9L3561.8 752.9L3560.9 750.1H3571.8Z" fill="#C95C12"/>
<path d="M3696.8 815.2L3669.5 933.7H3744.9L3772.2 815.2H3696.8Z" fill="#699DEE"/>
<path d="M3647.9 815.2L3620.6 933.7H3696.1L3723.4 815.2H3647.9Z" fill="white"/>
<path d="M3668.7 878.6V930.1C3668.7 932 3667.1 933.6 3665.2 933.6L3579.5 933.7C3577.5 933.7 3576 932.1 3576 930.2V878.7C3576 876.7 3577.6 875.2 3579.5 875.2L3665.2 875.1C3667.2 875.1 3668.7 876.6 3668.7 878.6Z" fill="#F1A34F"/>
<path d="M3668.7 878.6V880.1L3622.3 904.4L3575.9 878.7C3575.9 876.7 3577.5 875.2 3579.4 875.2L3665.1 875.1C3667.2 875.1 3668.7 876.6 3668.7 878.6Z" fill="#D86713"/>
<path d="M3662.1 924.9H3646C3645.2 924.9 3644.6 925.5 3644.6 926.3C3644.6 927.1 3645.2 927.7 3646 927.7H3662.1C3662.9 927.7 3663.5 927.1 3663.5 926.3C3663.5 925.5 3662.8 924.9 3662.1 924.9Z" fill="#D86713"/>
<path d="M3652.9 878.2C3652.9 876.2 3651.3 874.7 3649.4 874.7L3563.7 874.8C3561.7 874.8 3560.2 876.4 3560.2 878.3V929.8C3560.2 931.7 3561.8 933.3 3563.7 933.3L3649.4 933.2C3651.4 933.2 3652.9 931.6 3652.9 929.7V878.2Z" fill="#F1A34F"/>
<path d="M3652.9 878.2V879.7L3606.5 904L3560.1 878.3C3560.1 876.3 3561.7 874.8 3563.6 874.8L3649.3 874.7C3651.4 874.7 3652.9 876.3 3652.9 878.2Z" fill="#D86713"/>
<path d="M3646.3 924.5H3630.2C3629.4 924.5 3628.8 925.1 3628.8 925.9C3628.8 926.7 3629.4 927.3 3630.2 927.3H3646.3C3647.1 927.3 3647.7 926.7 3647.7 925.9C3647.7 925.1 3647 924.5 3646.3 924.5Z" fill="#D86713"/>
<path d="M4756.7 1704.1H250C248.6 1704.1 247.5 1703 247.5 1701.6V1701.4C247.5 1700 248.6 1698.9 250 1698.9H4756.7C4758.1 1698.9 4759.2 1700 4759.2 1701.4V1701.6C4759.2 1702.9 4758.1 1704.1 4756.7 1704.1Z" fill="#283250"/>
</svg>
