<svg width="32" height="32" viewBox="0 0 32 32" fill="none" xmlns="http://www.w3.org/2000/svg">
<path d="M31.4885 14.5055L19.9322 0.614182C19.6023 0.217653 19.1626 0 18.6938 0C18.2245 0 17.7851 0.217966 17.4552 0.614182L16.406 1.87569C16.0764 2.2716 15.8948 2.80041 15.8948 3.36424C15.8948 3.92776 16.0764 4.4744 16.406 4.8703L23.1478 12.9919H1.72877C0.763051 12.9919 0 13.9007 0 15.0618V16.8453C0 18.0064 0.763051 19.0068 1.72877 19.0068H23.2243L16.4062 27.1738C16.0766 27.5703 15.895 28.0847 15.895 28.6486C15.895 29.2118 16.0766 29.7337 16.4062 30.1299L17.4555 31.3874C17.7853 31.7839 18.2248 32 18.6941 32C19.1629 32 19.6026 31.7811 19.9325 31.3846L31.4888 17.4935C31.8194 17.0958 32.0013 16.5648 32 16.0003C32.001 15.434 31.8194 14.9027 31.4885 14.5055Z" fill="white"/>
</svg>
