<svg width="24" height="24" viewBox="0 0 24 24" fill="none" xmlns="http://www.w3.org/2000/svg">
<path d="M23.6164 10.8791L14.9491 0.460636C14.7017 0.16324 14.372 0 14.0204 0C13.6684 0 13.3388 0.163474 13.0914 0.460636L12.3045 1.40677C12.0573 1.7037 11.9211 2.1003 11.9211 2.52318C11.9211 2.94582 12.0573 3.3558 12.3045 3.65272L17.3608 9.74396H1.29657C0.572288 9.74396 0 10.4255 0 11.2964V12.634C0 13.5048 0.572288 14.2551 1.29657 14.2551H17.4182L12.3047 20.3803C12.0575 20.6777 11.9213 21.0636 11.9213 21.4864C11.9213 21.9088 12.0575 22.3003 12.3047 22.5975L13.0916 23.5405C13.339 23.8379 13.6686 24 14.0206 24C14.3722 24 14.7019 23.8358 14.9493 23.5384L23.6166 13.1202C23.8646 12.8218 24.001 12.4236 24 12.0002C24.0008 11.5755 23.8646 11.177 23.6164 10.8791Z" fill="white"/>
</svg>
